<?xml version="1.0" encoding="UTF-8" standalone="no"?>
<!-- Created with Inkscape (http://www.inkscape.org/) -->

<svg
   width="50.48317mm"
   height="54.623001mm"
   viewBox="0 0 50.48317 54.623001"
   version="1.1"
   id="svg5"
   xml:space="preserve"
   inkscape:export-filename="logo.svg"
   inkscape:export-xdpi="96"
   inkscape:export-ydpi="96"
   xmlns:inkscape="http://www.inkscape.org/namespaces/inkscape"
   xmlns:sodipodi="http://sodipodi.sourceforge.net/DTD/sodipodi-0.dtd"
   xmlns="http://www.w3.org/2000/svg"
   xmlns:svg="http://www.w3.org/2000/svg"><sodipodi:namedview
     id="namedview7"
     pagecolor="#ffffff"
     bordercolor="#000000"
     borderopacity="0.25"
     inkscape:showpageshadow="2"
     inkscape:pageopacity="0.0"
     inkscape:pagecheckerboard="0"
     inkscape:deskcolor="#d1d1d1"
     inkscape:document-units="mm"
     showgrid="false" /><defs
     id="defs2" /><g
     inkscape:label="Layer 1"
     inkscape:groupmode="layer"
     id="layer1"
     transform="translate(-140.96558,-63.164518)"><path
       style="fill:#000000;stroke-width:0.0725714"
       d="m 147.38972,117.72298 c -0.26727,-0.0659 -1.05363,-0.58887 -1.05898,-0.70433 -0.001,-0.0286 -0.0659,-0.12829 -0.14355,-0.22144 l -0.14114,-0.16936 -0.27373,0.25967 c -0.15056,0.14281 -0.50234,0.38198 -0.78174,0.53149 -0.46486,0.24874 -0.5573,0.27188 -1.08857,0.27255 -0.74145,9.3e-4 -1.00038,-0.12173 -1.67538,-0.79366 -0.63838,-0.63549 -0.75589,-0.93441 -0.75547,-1.92183 6.7e-4,-1.61262 0.51995,-3.40208 1.44136,-4.96705 0.55209,-0.93769 1.25155,-1.45077 2.2425,-1.64496 0.71027,-0.13919 1.39969,-0.0616 1.83006,0.20591 l 0.35743,0.22219 0.21372,-0.55737 c 0.49293,-1.28554 0.8638,-2.8591 0.92669,-3.93193 0.0612,-1.04335 0.18816,-1.12285 1.1966,-0.74906 1.13317,0.42003 1.5062,1.21029 1.21684,2.57791 -0.093,0.43968 -1.92675,7.58437 -2.2098,8.60997 -0.10291,0.37287 -0.16486,0.69945 -0.13768,0.72571 0.0272,0.0263 0.2027,-0.12261 0.39003,-0.33084 0.2985,-0.3318 0.38325,-0.50672 0.68562,-1.41514 0.41328,-1.24164 0.96106,-2.48399 1.334,-3.02548 0.33751,-0.49005 1.34142,-1.37636 1.9842,-1.75176 0.53145,-0.31038 0.84455,-0.39905 1.67129,-0.4733 0.71051,-0.0638 1.00431,0.0331 1.48837,0.4909 0.46533,0.4401 0.68031,0.91645 0.73401,1.62648 l 0.0402,0.53207 -0.20989,0.0814 -0.20988,0.0814 0.254,0.19291 c 0.46712,0.35477 0.64073,0.56676 0.72805,0.88901 0.11214,0.41383 0.0119,1.15087 -0.28901,2.12496 -0.12173,0.39408 -0.22008,0.80229 -0.21856,0.90715 0.006,0.43267 0.99539,-0.89909 1.87905,-2.53 0.18935,-0.34947 0.38829,-0.62657 0.4597,-0.64032 0.0692,-0.0133 0.30431,0.0574 0.52235,0.15725 0.54417,0.24913 0.5794,0.41339 0.23428,1.09243 -0.14388,0.28309 -0.331,0.69433 -0.41581,0.91385 -0.69402,1.79633 -1.88357,2.98906 -2.99092,2.99889 -0.60962,0.005 -1.60538,-0.49257 -1.84565,-0.92301 -0.0708,-0.12682 -0.0988,-0.11311 -0.35828,0.1754 -0.75454,0.83889 -1.18134,1.08559 -1.87806,1.08559 -0.93313,0 -1.54199,-0.51196 -1.91543,-1.6106 l -0.11879,-0.34947 -0.36175,0.4828 c -0.39102,0.52188 -1.04196,1.10671 -1.48123,1.33081 -0.34022,0.17356 -0.89305,0.23545 -1.27109,0.14229 z m -2.64124,-2.55579 c 0.45149,-0.34436 0.7502,-0.77538 1.37852,-1.98914 0.52642,-1.01691 0.93187,-2.08016 0.93187,-2.44372 0,-0.17233 -0.20582,-0.40011 -0.49783,-0.55094 -0.26524,-0.137 -0.73065,0.0788 -1.22964,0.57005 -0.4866,0.47911 -1.02652,1.48487 -1.21216,2.25799 -0.1552,0.64639 -0.22685,2.02833 -0.11591,2.23563 0.1217,0.2274 0.37837,0.19989 0.74515,-0.0799 z m 8.89716,-0.17424 c 0.32467,-0.26278 0.61183,-0.77124 0.9436,-1.67081 0.25049,-0.67914 0.26122,-0.74663 0.24811,-1.55992 -0.0127,-0.78882 -0.003,-0.85578 0.13437,-0.92931 0.0814,-0.0436 0.21214,-0.0589 0.29046,-0.034 0.0783,0.0249 0.14224,0.0185 0.14205,-0.0141 -6.5e-4,-0.10693 -0.48103,-0.58538 -0.63769,-0.6351 -0.54614,-0.17334 -1.46813,0.58979 -1.97239,1.63254 -0.37462,0.77466 -0.45758,1.21453 -0.42665,2.26215 0.0252,0.85489 0.0285,0.8692 0.23816,1.04955 0.27353,0.23528 0.6724,0.19657 1.03998,-0.10094 z m 21.57094,2.66168 c -0.55049,-0.25678 -1.016,-0.82464 -1.016,-1.23938 0,-0.13797 -0.0461,-0.11482 -0.36431,0.1828 -0.20037,0.18742 -0.61511,0.45987 -0.92164,0.60544 -0.46592,0.22127 -0.63529,0.26458 -1.03269,0.26408 -0.80422,-10e-4 -1.79258,-0.56768 -2.11886,-1.21484 -0.0838,-0.16619 -0.16441,-0.31553 -0.17917,-0.33186 -0.0147,-0.0163 -0.21485,0.14867 -0.44465,0.36669 -0.7641,0.7249 -1.50425,1.14687 -2.01439,1.14842 -0.53333,0.002 -1.27241,-0.4546 -1.52372,-0.94057 -0.0523,-0.10114 -0.11751,-0.33339 -0.14491,-0.51612 -0.0829,-0.55279 0.21416,-2.76039 0.5849,-4.34672 0.0691,-0.29556 -0.64762,0.50423 -0.86656,0.96704 -0.24061,0.5086 -0.65896,2.13704 -0.88883,3.45982 -0.10058,0.57875 -0.2303,1.12576 -0.28827,1.21557 -0.1315,0.20374 -0.29,0.20461 -0.90977,0.005 -0.48381,-0.15582 -0.85586,-0.42013 -1.10241,-0.78315 -0.2327,-0.34264 -0.11649,-1.85009 0.31028,-4.02459 0.20414,-1.0402 0.34805,-2.09668 0.47766,-3.50669 0.0461,-0.50179 0.0569,-0.52614 0.232,-0.52614 0.19925,0 0.39399,0.10615 1.3069,0.71241 l 0.59813,0.39722 0.1615,-0.2101 c 0.55925,-0.72752 1.2305,-1.12469 1.98053,-1.17186 0.44586,-0.028 0.53907,-0.0108 0.762,0.14076 0.31753,0.21592 0.69272,0.83212 0.7939,1.30388 0.18815,0.87734 0.0771,1.83458 -0.41548,3.58111 -0.32846,1.16461 -0.57507,2.33126 -0.50715,2.39918 0.0966,0.0966 0.80839,-0.37709 1.20418,-0.80148 0.50159,-0.53783 0.69401,-0.9798 1.38071,-3.17125 0.3582,-1.14312 0.74965,-1.8852 1.26739,-2.40263 0.77861,-0.77816 2.07074,-1.18593 2.94099,-0.92812 0.46338,0.13727 0.85244,0.42774 1.15978,0.86588 0.4935,0.70353 0.66501,1.13719 0.66582,1.68348 7.4e-4,0.49792 -0.0728,0.64952 -0.31498,0.64952 -0.1053,0 -0.0654,0.0551 0.15589,0.21543 0.16357,0.11849 0.33638,0.28826 0.38401,0.37727 0.12434,0.23233 0.0335,1.48983 -0.18795,2.60044 -0.19498,0.97807 -0.21878,1.23371 -0.11482,1.23371 0.0366,0 0.28231,-0.18647 0.546,-0.41438 0.37403,-0.3233 0.50175,-0.48681 0.58098,-0.74386 0.0559,-0.18121 0.4481,-1.32187 0.87166,-2.53479 0.86825,-2.48634 1.08444,-3.20125 0.96804,-3.20125 -0.0429,0 -0.24025,0.0998 -0.43847,0.22176 -0.43913,0.2702 -0.61466,0.25416 -0.83868,-0.0766 -0.38361,-0.5664 -0.0376,-1.09866 1.17045,-1.80059 0.31407,-0.18249 0.59586,-0.39902 0.6262,-0.48118 0.0923,-0.24995 0.35637,-1.84596 0.43415,-2.62403 0.0992,-0.99257 0.13159,-1.0618 0.42279,-0.90435 0.0693,0.0375 0.37367,0.18305 0.67635,0.32349 0.63255,0.29349 1.10149,0.7461 1.22175,1.17921 0.0427,0.15385 0.0779,0.46952 0.0781,0.70147 l 4.4e-4,0.42173 0.30842,-0.0379 c 0.74692,-0.0917 1.85138,-0.11917 2.0318,-0.0506 0.24069,0.0915 0.38535,0.36707 0.45234,0.86163 0.0404,0.29844 0.0255,0.42326 -0.0679,0.56567 -0.15495,0.23647 -0.27865,0.27934 -1.31576,0.45597 -0.95956,0.16342 -1.90949,0.45654 -2.03504,0.62796 -0.13227,0.18058 -0.51757,1.57772 -0.78489,2.84609 -0.13649,0.64761 -0.3783,1.65998 -0.53736,2.24971 -0.15907,0.58973 -0.31116,1.20286 -0.33799,1.36252 l -0.0488,0.29028 0.19428,-0.18142 c 0.23638,-0.22074 0.93697,-1.33913 1.18198,-1.88686 0.28433,-0.63564 0.5779,-1.54079 0.92321,-2.84644 0.17652,-0.66747 0.38695,-1.34294 0.46761,-1.50105 0.13715,-0.26883 0.16435,-0.28567 0.41977,-0.25976 0.62553,0.0634 1.47533,0.49193 1.65158,0.83275 0.22267,0.4306 0.11281,1.34207 -0.43394,3.60045 -0.17565,0.72554 -0.3661,1.56665 -0.42321,1.86912 -0.10078,0.53376 -0.0998,0.54778 0.0338,0.4763 0.24455,-0.13088 0.78189,-0.88443 1.10849,-1.55451 0.53659,-1.10093 1.02512,-2.87903 1.21307,-4.41519 0.075,-0.61269 0.11108,-0.72958 0.25443,-0.82351 0.15312,-0.10033 0.21118,-0.0928 0.69515,0.0899 1.29561,0.48903 1.59764,0.73921 1.69767,1.40623 0.096,0.64027 -0.1994,2.14191 -0.95042,4.83118 -0.2662,0.95321 -0.24595,1.01986 0.17088,0.56242 0.39701,-0.43568 1.12294,-1.67585 1.46569,-2.50399 0.25267,-0.6105 0.50739,-0.92516 0.74857,-0.92473 0.25923,4.3e-4 0.62737,0.2777 0.74611,0.56188 0.1039,0.24867 0.10114,0.31375 -0.037,0.87335 -0.17009,0.689 -0.72075,1.89059 -1.16869,2.55022 -0.85072,1.25275 -1.88232,1.88768 -2.79023,1.71735 -0.52866,-0.0992 -1.00201,-0.74836 -1.10531,-1.51591 l -0.0469,-0.34855 -0.61033,0.65407 c -0.91602,0.98164 -1.78308,1.34693 -2.52477,1.06368 -0.54151,-0.20681 -0.83204,-0.68615 -0.83853,-1.38351 l -0.003,-0.29028 -0.15833,0.21771 c -0.37264,0.51242 -1.10536,1.19563 -1.51832,1.41574 -0.37611,0.20046 -0.49378,0.22925 -0.82491,0.20179 -0.48354,-0.0401 -0.82387,-0.28429 -1.12283,-0.80566 -0.11872,-0.20704 -0.22663,-0.40778 -0.23979,-0.44608 -0.0132,-0.0383 -0.24016,0.15956 -0.50443,0.4397 -0.64792,0.68683 -1.08302,0.91791 -1.79258,0.95203 -0.4416,0.0212 -0.61003,-0.003 -0.87364,-0.12603 z m -2.48646,-2.60987 c 0.26112,-0.15921 1.02916,-1.1554 1.2852,-1.66698 0.33151,-0.66237 0.42028,-1.06237 0.39267,-1.76938 l -0.026,-0.66526 0.19957,0.003 c 0.10976,0.002 0.19957,-0.006 0.19957,-0.0171 0,-0.0109 -0.10132,-0.18459 -0.22516,-0.38585 -0.49475,-0.80407 -0.99695,-0.71015 -1.66569,0.3115 -0.86329,1.31888 -1.34763,3.42993 -0.94023,4.09811 0.17136,0.28105 0.42164,0.31058 0.78004,0.0921 z m -11.99154,-9.07728 c -1.026,-0.15714 -1.55112,-0.44339 -2.27852,-1.24205 -0.38788,-0.42589 -0.86223,-0.71286 -1.1783,-0.71286 -0.0999,0 -0.42429,0.0645 -0.72094,0.14343 -1.02211,0.27181 -1.57242,0.16979 -2.14301,-0.39729 -0.44431,-0.44159 -0.56653,-0.76625 -0.71609,-1.90231 -0.0589,-0.44747 -0.1539,-0.92558 -0.21109,-1.06246 -0.0572,-0.13688 -0.31594,-0.47983 -0.57498,-0.76211 -0.53533,-0.583329 -0.70092,-0.965199 -0.71045,-1.63833 l -0.006,-0.440643 -0.21464,0.460068 c -0.11805,0.253038 -0.26537,0.661256 -0.32736,0.907146 -0.17067,0.67687 -0.28247,0.702769 -0.39428,0.0913 -0.0797,-0.4357 0.0508,-1.099115 0.3346,-1.701919 l 0.25128,-0.53365 -0.25479,0.223707 c -0.44643,0.391972 -1.19838,1.265021 -1.46102,1.696312 -0.32415,0.5323 -0.50044,0.56173 -0.43475,0.0726 0.099,-0.737275 0.90199,-1.885767 1.70993,-2.44567 0.16398,-0.113635 0.28805,-0.216698 0.27572,-0.229028 -0.0123,-0.01233 -0.33133,0.0231 -0.70889,0.07873 -0.37755,0.05563 -0.96405,0.122576 -1.30332,0.148765 -0.8791,0.06786 -2.92217,0.486192 -4.02772,0.824699 -0.51888,0.158879 -1.25367,0.362322 -1.63285,0.452097 -1.24817,0.295514 -2.48276,0.1843 -2.90144,-0.261369 -0.14169,-0.150823 -0.16031,-0.234012 -0.13396,-0.598392 0.0253,-0.350114 0.13956,-0.646632 0.66135,-1.716645 1.03966,-2.132005 1.53365,-2.840326 2.88184,-4.13221 2.01843,-1.934147 3.74119,-2.906245 5.95106,-3.358003 0.33928,-0.06936 0.64068,-0.146194 0.6698,-0.170749 0.0971,-0.0819 -0.66077,-0.514229 -1.30423,-0.743997 -0.7425,-0.265131 -0.79959,-0.303603 -0.6744,-0.45444 0.16835,-0.202852 0.9259,-0.14835 1.42297,0.102376 0.23367,0.11787 0.43291,0.206266 0.44274,0.196436 0.0309,-0.03085 -1.10652,-1.528615 -1.27109,-1.67385 -0.21171,-0.186846 -0.19923,-0.333467 0.0284,-0.333467 0.56424,0 1.42138,0.948084 1.89236,2.093141 l 0.16888,0.410574 0.002,-0.405925 c 0.005,-1.076244 0.66059,-2.098105 1.7873,-2.784017 0.27523,-0.167552 0.53847,-0.383774 0.58498,-0.480493 0.0465,-0.09672 0.11905,-0.447306 0.16121,-0.779084 0.17489,-1.37615 1.02573,-2.144522 2.49859,-2.25643 l 0.6665,-0.05064 -0.32657,-0.101447 c -0.19814,-0.06155 -0.65848,-0.102369 -1.17056,-0.103792 -0.92733,-0.0026 -1.01966,-0.06577 -0.49052,-0.33571 0.71944,-0.367033 1.76884,-0.206202 2.58767,0.396582 0.23986,0.176575 0.45349,0.364611 0.47474,0.417858 0.0214,0.05358 0.0412,0.06043 0.0444,0.01533 0.01,-0.142193 -1.07222,-1.112301 -1.68771,-1.512869 -0.32591,-0.212104 -0.84565,-0.510641 -1.15498,-0.663415 -0.30934,-0.152774 -0.56243,-0.299457 -0.56243,-0.325963 0,-0.09634 0.31993,-0.128314 0.65261,-0.06522 0.85231,0.161636 1.58909,0.588195 2.47666,1.433864 l 0.55298,0.52688 0.049,-0.432745 c 0.0684,-0.604124 0.47628,-1.400652 0.85949,-1.678246 0.62099,-0.449841 1.10021,-0.447861 2.09253,0.0086 1.00158,0.46077 1.54295,0.391918 2.29051,-0.291312 0.73986,-0.676192 1.21131,-0.654306 2.07654,0.0964 0.28867,0.250463 0.58637,0.478295 0.66154,0.506295 0.0792,0.02949 0.39808,-0.02882 0.75814,-0.138646 0.51345,-0.156614 0.73141,-0.18524 1.2542,-0.164724 0.56695,0.02225 0.66546,0.04781 0.94729,0.245767 0.4674,0.328299 0.66204,0.734143 0.70012,1.459823 l 0.0314,0.598134 0.48095,-0.493629 c 0.26452,-0.271495 0.6636,-0.614018 0.88684,-0.761162 0.70478,-0.464525 1.30948,-0.423822 0.74885,0.05041 -0.76469,0.646846 -1.38906,1.307252 -1.74215,1.842684 -0.41906,0.635471 -0.53249,0.890378 -0.17916,0.402613 0.42393,-0.585213 1.66328,-1.316503 2.34159,-1.38168 0.55334,-0.05317 0.45171,0.132919 -0.32317,0.591757 -0.36921,0.218622 -0.7366,0.451352 -0.81643,0.517178 -0.14239,0.117411 -0.1417,0.118964 0.0363,0.08178 0.85344,-0.178307 1.23707,-0.197236 1.6839,-0.08309 0.75198,0.1921 1.23683,0.604538 1.43398,1.219841 0.0483,0.15079 0.11352,0.648203 0.1449,1.105364 0.0802,1.1678 0.10095,1.192242 1.41463,1.661769 0.95908,0.34279 1.30127,0.557858 1.54366,0.970206 0.1661,0.282559 0.20089,0.425663 0.19804,0.814499 -0.003,0.416583 -0.0496,0.569255 -0.39781,1.306286 -0.38593,0.816773 -0.39436,0.848501 -0.39518,1.487714 -4.4e-4,0.359229 0.0407,0.770856 0.0915,0.914728 l 0.0924,0.261584 0.31192,-0.07138 c 0.63511,-0.145333 2.17025,0.329507 3.11706,0.964147 0.50809,0.340567 1.40352,1.191209 1.87079,1.777206 0.48583,0.609285 1.258,1.845812 1.63146,2.612572 0.41956,0.861418 0.58365,1.37682 1.05588,3.31641 0.25103,1.031059 0.3068,1.387499 0.31187,1.993239 0.006,0.68593 -0.006,0.75086 -0.17054,0.9261 -0.61622,0.65721 -2.49298,0.30065 -5.70549,-1.08395 -1.57389,-0.67835 -2.10834,-0.95595 -2.71191,-1.40864 -0.21644,-0.162329 -0.40714,-0.281539 -0.42377,-0.264909 -0.0512,0.0512 0.52165,0.983569 1.0641,1.732179 0.28336,0.39106 0.5152,0.74566 0.5152,0.78802 0,0.12053 -0.36476,0.006 -0.68579,-0.21482 -0.25232,-0.17377 -0.62645,-0.59391 -0.99077,-1.11263 -0.10758,-0.15317 -0.10961,-0.11153 -0.0272,0.55716 0.049,0.39748 0.11312,0.84516 0.14249,0.99484 0.0662,0.3374 -0.0275,0.35238 -0.28556,0.0457 -0.33496,-0.39808 -0.5337,-1.05228 -0.61192,-2.01429 l -0.045,-0.553229 -0.32657,0.303239 -0.32658,0.30325 -0.003,0.85789 c -0.002,0.66315 -0.033,0.92805 -0.1351,1.16689 -0.193,0.45139 -0.74759,0.91669 -1.33349,1.1188 -0.43296,0.14935 -0.60526,0.16661 -1.53157,0.15348 -0.7837,-0.0111 -1.09341,0.0109 -1.24317,0.0883 -0.10969,0.0567 -0.41273,0.36094 -0.67342,0.67604 -1.13837,1.37597 -2.3005,1.70957 -3.67997,1.05638 -0.89944,-0.4259 -1.25722,-0.88771 -1.56072,-2.0145 l -0.15404,-0.5719 -0.1328,0.35418 c -0.22408,0.59764 -0.47757,0.969 -1.08993,1.59671 -0.78369,0.80334 -1.05149,0.92343 -2.10622,0.94454 -0.43906,0.009 -0.99423,-0.014 -1.23372,-0.0507 z m 2.17494,-0.64133 c 0.35017,-0.15629 1.34518,-1.1779 1.56292,-1.60472 0.35474,-0.69534 0.57358,-2.0806 0.47465,-3.00445 -0.0643,-0.60091 -0.18997,-0.6011 -0.29915,-4.3e-4 -0.24605,1.35354 -0.90122,2.29128 -1.95393,2.79662 -0.81551,0.39148 -0.9909,0.31845 -2.18301,-0.90899 -0.40237,-0.41429 -0.86643,-0.82205 -1.03125,-0.90613 -0.3617,-0.18453 -0.78197,-0.19479 -1.47947,-0.0362 -0.65805,0.14967 -1.36314,0.11174 -1.63735,-0.0881 -0.35847,-0.26122 -0.52639,-0.70545 -0.53102,-1.40473 -0.006,-0.864699 -0.0856,-1.045279 -0.67323,-1.522894 -0.57162,-0.464557 -0.69605,-0.653035 -0.69725,-1.056161 -0.001,-0.422044 0.24556,-1.282653 0.51031,-1.779369 0.24955,-0.4682 0.42643,-0.627339 1.1727,-1.055068 0.39029,-0.223696 0.48986,-0.316097 0.48986,-0.454602 0,-0.15292 -0.024,-0.168051 -0.19958,-0.125746 -0.70925,0.170914 -1.76277,0.841045 -2.51266,1.598274 -0.82811,0.836209 -1.25908,1.809743 -1.18879,2.685406 0.0444,0.553141 0.15053,0.759931 0.70272,1.369261 0.50714,0.559599 0.63179,0.818319 0.73684,1.529349 0.0418,0.28281 0.1086,0.72648 0.14848,0.98592 0.13868,0.90237 0.61058,1.4012 1.32233,1.39781 0.20559,-9.8e-4 0.57446,-0.0546 0.8197,-0.11922 1.03891,-0.27363 1.56527,-0.11106 2.37545,0.7337 0.76881,0.80162 1.12856,0.97617 2.28031,1.1064 0.72191,0.0816 1.422,0.0285 1.79042,-0.13597 z m 6.20529,-0.0427 c 0.35725,-0.18103 0.75503,-0.53859 1.52231,-1.36836 0.49954,-0.54022 0.60139,-0.573 1.74752,-0.56238 1.15367,0.0107 1.59725,-0.0663 2.05542,-0.3569 0.51158,-0.32444 0.62738,-0.62061 0.62738,-1.60471 0,-0.73182 0.0178,-0.84322 0.17783,-1.11639 0.0978,-0.1669 0.30192,-0.396999 0.45357,-0.511329 0.54293,-0.40933 1.13288,-1.01727 1.26399,-1.302544 0.16463,-0.358188 0.17714,-1.034586 0.0284,-1.535417 -0.23602,-0.794776 -1.22394,-1.769062 -2.19314,-2.162884 -0.35195,-0.143011 -2.02995,-0.547128 -2.27182,-0.547128 -0.0393,0 -0.0714,0.063 -0.0714,0.139997 0,0.112133 0.0831,0.157025 0.41729,0.225542 0.83191,0.170543 1.26419,0.459334 1.94048,1.296366 0.69749,0.86327 0.91961,1.600859 0.66396,2.204855 -0.13637,0.322202 -0.29044,0.436232 -0.89843,0.664932 -0.50792,0.191061 -0.56158,0.236001 -0.87161,0.730051 -0.19008,0.30288 -0.24185,0.51042 -0.19562,0.784089 0.0785,0.46466 -0.0303,1.19197 -0.20946,1.39965 -0.29898,0.34664 -0.66102,0.35848 -1.85164,0.0606 -1.48376,-0.37128 -1.98751,-0.2925 -2.53829,0.39692 -0.14668,0.18359 -0.46949,0.54208 -0.71738,0.79665 l -0.4507,0.46285 -0.40273,-0.0334 c -0.48141,-0.0399 -0.84729,-0.29634 -1.12701,-0.78983 -0.16565,-0.29224 -0.1836,-0.41003 -0.20638,-1.35422 -0.0248,-1.02673 -0.0262,-1.03415 -0.19363,-1.03415 -0.2395,0 -0.40514,0.0753 -0.35259,0.16036 0.0247,0.0399 0.0701,0.33857 0.10104,0.66368 0.17568,1.84805 0.43287,2.97037 0.80901,3.53025 0.27802,0.41383 0.43563,0.52962 1.09036,0.80102 0.64091,0.26567 1.07345,0.2557 1.65328,-0.0381 z m -6.11171,-2.72194 c 0.37812,-0.23054 0.65387,-0.78333 0.45276,-0.90763 -0.0846,-0.0523 -1.01575,0.75719 -1.01581,0.88305 -4e-5,0.0827 0.10835,0.15238 0.25396,0.16333 0.0399,0.003 0.17901,-0.0594 0.30909,-0.13875 z m 22.15177,-0.30021 c 0,-0.0452 -0.1388,-0.34296 -0.30843,-0.6618 l -0.30843,-0.5797 -0.0477,0.47252 c -0.0262,0.25989 -0.0833,0.53911 -0.12686,0.62049 -0.0677,0.12649 -0.0555,0.15253 0.084,0.1794 0.34035,0.0656 0.70744,0.0495 0.70744,-0.0309 z m -18.21629,-0.29889 c -0.001,-0.27838 -0.18137,-0.99141 -0.27427,-1.0843 -0.25956,-0.25956 -0.31227,0.8868 -0.0539,1.17229 0.20026,0.22128 0.32918,0.18671 0.32817,-0.088 z m 16.97055,-0.29029 c 0.0423,-0.24946 0.0933,-0.6691 0.11332,-0.93252 0.0339,-0.44708 0.0225,-0.49536 -0.17161,-0.72571 -0.24688,-0.292949 -0.23485,-0.315989 -0.4016,0.76923 -0.0675,0.43906 -0.13915,0.88427 -0.15932,0.98935 -0.0306,0.15933 -0.002,0.20359 0.17029,0.26642 0.34406,0.12527 0.36884,0.10502 0.44892,-0.36677 z m 1.79381,-0.29807 c -0.0265,-0.24774 -0.0709,-0.48429 -0.0986,-0.52568 -0.0507,-0.0757 -0.66999,-0.34364 -0.70306,-0.30414 -0.01,0.0117 0.16426,0.34412 0.3867,0.73884 0.22243,0.39471 0.41765,0.678 0.4338,0.62953 0.0162,-0.0485 0.008,-0.29081 -0.0189,-0.53855 z m -2.85535,-0.70557 c 0.10891,-0.57558 0.23297,-1.124209 0.27567,-1.219199 0.0617,-0.13721 0.0524,-0.20058 -0.0452,-0.30843 -0.0675,-0.0747 -0.14226,-0.13556 -0.16601,-0.13536 -0.0237,2.1e-4 -0.12097,0.28595 -0.21604,0.635 -0.0951,0.34905 -0.28285,0.910399 -0.41729,1.247449 -0.13443,0.33705 -0.24442,0.6344 -0.24442,0.66079 0,0.0573 0.44109,0.20535 0.54349,0.18237 0.0395,-0.009 0.16089,-0.48704 0.2698,-1.06262 z m -1.21277,0.13278 c 0.10886,-0.28937 0.30471,-0.839449 0.43522,-1.222379 0.13052,-0.38293 0.27221,-0.761452 0.31487,-0.841162 0.0661,-0.123436 0.0319,-0.189683 -0.22999,-0.446761 -0.16915,-0.16601 -0.3308,-0.301836 -0.35923,-0.301836 -0.0284,0 -0.0517,0.09885 -0.0517,0.219659 0,0.310538 -0.42723,2.450529 -0.54595,2.734669 -0.0877,0.20992 -0.085,0.24433 0.024,0.30794 0.0675,0.0394 0.14349,0.0726 0.1688,0.0738 0.0253,10e-4 0.13508,-0.23456 0.24393,-0.52394 z m -0.97938,0.0223 c 0,-0.27725 0.51362,-2.499675 0.6478,-2.803001 0.13648,-0.308542 0.13643,-0.309629 -0.0196,-0.445968 -0.40187,-0.351066 -0.37709,-0.363343 -0.57996,0.287336 -0.14488,0.464681 -0.76118,2.035264 -1.03454,2.636433 -0.0195,0.043 0.1699,0.16227 0.42098,0.26512 0.56596,0.23184 0.56536,0.23178 0.56536,0.0601 z m -21.17955,-0.70979 c -0.02,-0.277169 0.01,-0.339009 0.32441,-0.675469 0.36263,-0.38768 0.357,-0.50198 -0.0249,-0.50462 -0.18786,-0.001 -0.64968,0.43426 -0.75547,0.71251 -0.14686,0.386269 0.066,0.840269 0.37058,0.790299 0.0792,-0.013 0.1016,-0.0976 0.0854,-0.32272 z m 19.68476,-0.0382 c 0.025,-0.129719 0.30525,-0.887199 0.62289,-1.683277 0.31765,-0.796081 0.57029,-1.451636 0.56143,-1.456787 -0.009,-0.0052 -0.12202,-0.0825 -0.25147,-0.171883 -0.24229,-0.167304 -0.38149,-0.153997 -0.38149,0.03647 0,0.152101 -0.68814,1.835155 -1.03075,2.520988 -0.15659,0.31347 -0.26662,0.58803 -0.24451,0.61014 0.0675,0.0675 0.58276,0.375529 0.63218,0.377939 0.0255,10e-4 0.0668,-0.10387 0.0917,-0.23359 z m -8.61078,-0.269379 c 0.17761,-0.35222 0.20175,-0.62339 0.091,-1.022115 -0.10936,-0.393655 -0.2398,-0.540262 -0.40062,-0.450264 -0.11688,0.06541 -0.13515,0.184327 -0.14706,0.957349 -0.0133,0.860809 -0.01,0.882109 0.1399,0.860749 0.098,-0.014 0.21254,-0.13897 0.3168,-0.345719 z m 14.86735,0.15406 c -0.0157,-0.0264 -0.0671,-0.23574 -0.1143,-0.46525 -0.0981,-0.47709 -0.10491,-0.4796 -0.92134,-0.33743 l -0.4586,0.0799 0.32191,0.40999 0.32191,0.409999 0.43947,-0.0246 c 0.2417,-0.0135 0.42663,-0.0462 0.41095,-0.0726 z m -27.43466,-0.51928 c 0.15148,-0.53988 0.35791,-0.769372 0.78985,-0.878137 l 0.3354,-0.08445 -0.25319,-0.172048 c -0.13926,-0.09462 -0.31541,-0.172047 -0.39146,-0.172047 -0.17895,0 -0.57845,0.273049 -0.7619,0.520737 -0.17188,0.232075 -0.24638,0.846295 -0.1292,1.065245 0.14636,0.27347 0.28113,0.18177 0.4105,-0.2793 z m 6.95032,0.23486 c 0.0187,-0.0303 0.044,-0.21761 0.0562,-0.41632 l 0.0222,-0.36129 -1.26751,-0.157087 c -1.29222,-0.160148 -1.83783,-0.307796 -2.45355,-0.663956 -0.17335,-0.100271 -0.41079,-0.179593 -0.52764,-0.17627 -0.11686,0.0033 -0.45034,-0.102362 -0.74107,-0.234852 -0.92426,-0.4212 -1.63346,-1.404864 -2.01692,-2.797485 -0.0606,-0.22025 -0.0916,-0.971304 -0.0951,-2.306899 l -0.005,-1.980327 -0.29028,-0.245596 c -0.18974,-0.160524 -0.31543,-0.221174 -0.36286,-0.175091 -0.0452,0.04388 -0.0726,0.884362 -0.0726,2.225923 0,1.808764 0.0207,2.243461 0.12861,2.702844 0.15383,0.654772 0.47181,1.351105 0.83759,1.834243 0.36267,0.479017 1.2602,1.142934 2.14697,1.588134 1.25658,0.630859 1.57337,0.723939 3.88997,1.142919 0.44143,0.0798 0.71019,0.0874 0.75116,0.0211 z m 1.69528,-0.23853 c 1.33551,-0.29492 1.40884,-0.32015 2.1483,-0.739099 1.13742,-0.644417 1.68232,-1.26377 2.47538,-2.813631 0.54894,-1.07278 0.80297,-1.960521 1.01755,-3.556 0.14017,-1.042233 0.28494,-3.411179 0.20844,-3.410905 -0.007,2.6e-5 -0.17877,0.1029 -0.381,0.22861 l -0.36768,0.228561 -4.3e-4,0.98701 c -2.2e-4,0.542855 -0.0479,1.301922 -0.10592,1.686816 -0.12521,0.830615 -0.58019,2.677094 -0.67507,2.739679 -0.0366,0.02417 -0.0867,0.147299 -0.11127,0.273624 -0.0427,0.219842 -0.3335,0.731196 -0.78398,1.378755 -0.1156,0.166182 -0.21019,0.331522 -0.21019,0.367422 0,0.08301 -0.38571,0.455285 -0.47171,0.455285 -0.0356,0 -0.14806,0.07858 -0.25003,0.174631 -0.10197,0.09605 -0.414,0.296293 -0.6934,0.44499 -0.2794,0.148699 -0.64308,0.34863 -0.80818,0.444293 -0.27235,0.157798 -0.61199,0.252812 -1.64672,0.460659 -0.19268,0.0387 -0.38046,0.08899 -0.41728,0.11175 -0.0891,0.0551 -0.0865,0.75853 0.003,0.75853 0.0383,0 0.52004,-0.0994 1.07043,-0.22098 z m 11.62799,-0.851149 c 0.2171,-0.50797 0.53843,-1.228174 0.71408,-1.600454 0.17565,-0.37228 0.30827,-0.684787 0.29472,-0.69446 -0.12634,-0.09014 -0.59112,-0.335277 -0.60463,-0.318902 -0.01,0.0116 -0.14957,0.30529 -0.3111,0.652643 -0.16154,0.347353 -0.37469,0.739239 -0.47368,0.870858 -0.099,0.131618 -0.20328,0.386262 -0.23178,0.565877 -0.0285,0.179614 -0.11948,0.485929 -0.2022,0.680699 l -0.15038,0.354128 0.24884,0.20635 c 0.13687,0.11349 0.26518,0.20646 0.28513,0.20659 0.02,1.5e-4 0.21391,-0.41536 0.431,-0.923329 z m -6.4276,0.392389 c 0.14723,-0.310256 0.14845,-0.49873 0.006,-0.97725 -0.0993,-0.334367 -0.47486,-0.883006 -0.60445,-0.883006 -0.0265,0 -0.10136,0.08754 -0.16627,0.194523 -0.11279,0.185884 -0.10955,0.207351 0.0731,0.483312 0.1559,0.235593 0.1954,0.390249 0.21442,0.839619 0.0128,0.302962 0.0372,0.593062 0.0542,0.644672 0.0499,0.15162 0.28832,-0.0187 0.4227,-0.30187 z m 12.58923,-0.505672 c 0.29311,-0.06062 0.54945,-0.126761 0.56966,-0.146971 0.0202,-0.02021 -0.002,-0.155472 -0.0503,-0.300582 -0.0656,-0.198848 -0.11657,-0.252726 -0.20681,-0.218729 -0.0659,0.02481 -0.45413,0.180423 -0.86284,0.345808 l -0.74311,0.300701 0.15098,0.160711 c 0.13791,0.146793 0.17084,0.152422 0.38026,0.065 0.12609,-0.05264 0.46908,-0.145314 0.76218,-0.205937 z m -1.17789,-0.762281 c 0.27491,-0.113291 0.67945,-0.264262 0.89898,-0.335492 0.51455,-0.166957 0.54224,-0.197795 0.40899,-0.455481 l -0.11136,-0.215346 -1.09243,0.376529 c -0.60084,0.207092 -1.11684,0.400995 -1.14668,0.430897 -0.0646,0.06474 0.31164,0.404876 0.44783,0.404876 0.0521,0 0.31975,-0.09269 0.59467,-0.205983 z m -40.77479,-0.353654 -0.26936,-0.269351 -0.19657,0.146767 c -0.37423,0.279399 -0.28679,0.36089 0.40991,0.382052 l 0.32537,0.0099 z m 31.86198,-0.05087 c -0.0153,-0.107185 -0.0744,-0.151493 -0.20208,-0.151493 -0.22397,0 -0.2913,0.239153 -0.10555,0.374974 0.16503,0.12067 0.33877,-0.0055 0.30763,-0.223481 z m -30.25788,0.105167 c 0.0684,-0.03718 -0.0614,-0.162338 -0.42439,-0.409115 -0.28765,-0.19555 -0.5688,-0.388035 -0.62476,-0.427746 -0.10524,-0.07467 -0.32642,0.01548 -0.3679,0.149957 -0.0114,0.03706 0.11156,0.161092 0.27332,0.27562 0.16176,0.114528 0.33038,0.287821 0.3747,0.385095 0.0724,0.158934 0.11048,0.171941 0.3755,0.12831 0.1622,-0.0267 0.33929,-0.07266 0.39353,-0.102121 z m 30.83858,0.0554 c 0.12307,-0.123067 0.10586,-0.336242 -0.0559,-0.692606 -0.16056,-0.353712 -0.45206,-0.671737 -0.61571,-0.671737 -0.16463,0 -0.13846,0.152987 0.10555,0.616857 0.11975,0.227635 0.21772,0.469349 0.21772,0.537141 0,0.119872 0.12997,0.297431 0.21771,0.297431 0.024,0 0.0827,-0.03919 0.13063,-0.08709 z m -29.49461,-0.418218 0.35402,-0.119396 -0.9391,-0.581157 -0.93909,-0.581156 -0.26637,0.17677 c -0.14651,0.09722 -0.25124,0.201267 -0.23273,0.231206 0.0185,0.02994 0.26848,0.196325 0.5555,0.369747 0.28702,0.173421 0.5732,0.404765 0.63595,0.514096 0.125,0.217808 0.15718,0.217417 0.83182,-0.01011 z m 10.15099,-0.09341 c 0.0244,-0.07237 0.053,-0.07219 0.14156,8.93e-4 0.0901,0.07433 0.12719,0.07214 0.19669,-0.0116 0.0683,-0.08228 0.0528,-0.126253 -0.0765,-0.216816 l -0.16219,-0.113602 0.23766,-0.295739 c 0.26516,-0.329949 0.26021,-0.54863 -0.0106,-0.466511 -0.39136,0.118695 -0.75172,0.667773 -0.665,1.013274 0.0478,0.190361 0.2835,0.253131 0.33837,0.0901 z m 26.67885,-0.159113 c 0.34422,-0.137406 0.89453,-0.327153 1.2229,-0.421661 0.32837,-0.09451 0.61653,-0.191322 0.64035,-0.215142 0.0326,-0.03263 -0.12447,-0.428697 -0.21572,-0.543843 -0.0218,-0.02752 -1.36835,0.528542 -2.06181,0.851442 l -0.67728,0.315366 0.16928,0.130219 c 0.0931,0.07162 0.19789,0.130945 0.23285,0.131833 0.035,8.85e-4 0.34521,-0.110809 0.68943,-0.248214 z m -40.27142,-0.502376 -0.003,-0.300082 -0.17487,0.326571 c -0.23374,0.436505 -0.23374,0.54562 0,0.39247 0.14632,-0.09587 0.18079,-0.176946 0.17815,-0.418959 z m 4.95628,0.343747 c 0.14968,-0.02504 0.27163,-0.06584 0.271,-0.09068 -6.5e-4,-0.02483 -0.28737,-0.232417 -0.63722,-0.461295 -0.34984,-0.228879 -0.83479,-0.57627 -1.07767,-0.771982 l -0.44159,-0.355839 -0.29952,0.19141 c -0.16474,0.105276 -0.29977,0.20854 -0.30005,0.229477 -2.9e-4,0.02094 0.37753,0.263028 0.83959,0.537981 0.46206,0.274953 0.89477,0.57636 0.96157,0.669793 0.0812,0.113581 0.16956,0.157745 0.2666,0.133265 0.0798,-0.02014 0.26761,-0.0571 0.41729,-0.08213 z m 30.79007,-0.223155 c 0.0789,-0.147814 0.22104,-0.361465 0.31581,-0.474779 0.0948,-0.113314 0.15889,-0.219453 0.14248,-0.235865 -0.0164,-0.01641 -0.17462,-0.09466 -0.35157,-0.173883 l -0.32173,-0.144044 -0.15817,0.32817 -0.15816,0.328171 0.15599,0.320265 c 0.0858,0.176146 0.17306,0.320368 0.19392,0.320492 0.0209,1.46e-4 0.1025,-0.120712 0.18143,-0.268527 z m -13.45861,-0.103518 c 0.15004,-0.280343 -0.13109,-1.369446 -0.35348,-1.369446 -0.0893,0 -0.10107,0.102183 -0.0697,0.605272 0.0509,0.816301 0.22603,1.132516 0.42316,0.764174 z m -15.64682,-0.0157 0.36022,-0.08375 -0.86822,-0.569343 c -0.47752,-0.313139 -1.13758,-0.742422 -1.46681,-0.953964 l -0.5986,-0.38462 -0.18155,0.142802 c -0.0999,0.07854 -0.18154,0.185938 -0.18154,0.23866 0,0.05272 0.51435,0.429975 1.143,0.838342 0.62865,0.408365 1.15389,0.771074 1.16719,0.806018 0.0303,0.07959 0.16985,0.07198 0.62631,-0.03415 z m 17.8915,-0.09695 c 0,-0.312618 -0.29578,-1.320212 -0.43895,-1.495324 -0.10456,-0.127887 -0.14991,-0.142338 -0.22255,-0.07091 -0.0732,0.07199 -0.0658,0.200968 0.0374,0.653143 0.25576,1.119909 0.25086,1.107722 0.44542,1.107722 0.14539,0 0.17863,-0.03622 0.17863,-0.194629 z m 14.39251,0.01702 c 0.42287,-0.247716 1.93917,-0.891376 2.33412,-0.990825 0.18021,-0.04538 0.32766,-0.09808 0.32766,-0.117116 0,-0.02745 -0.2268,-0.377024 -0.33862,-0.521943 -0.0415,-0.05375 -0.62658,0.22866 -1.85434,0.89502 -1.2001,0.651342 -1.2115,0.659836 -1.05229,0.783864 0.20837,0.162318 0.22512,0.160911 0.58347,-0.049 z m -30.12406,-0.175499 c 0.0578,-0.05469 -1.61102,-1.311154 -2.67064,-2.010746 l -0.66752,-0.440714 -0.41438,0.209532 -0.41437,0.209533 0.64067,0.367354 c 1.27907,0.733404 2.34865,1.509849 2.34865,1.704966 0,0.09638 0.0807,0.10517 0.56242,0.06125 0.30934,-0.0282 0.58616,-0.07373 0.61517,-0.101175 z m -7.88337,-0.852595 c 0.0448,-0.39459 0.10594,-0.8399 0.13594,-0.989579 0.03,-0.149679 0.0351,-0.272143 0.0112,-0.272143 -0.0238,0 -0.13719,0.187779 -0.25192,0.417286 -0.16537,0.330781 -0.21895,0.558755 -0.2585,1.099713 l -0.0499,0.682427 0.16587,-0.110134 c 0.14278,-0.0948 0.17721,-0.210028 0.24726,-0.82757 z m 24.09884,0.728365 c 0.0242,-0.06297 -0.01,-0.167936 -0.0748,-0.233265 -0.11,-0.109994 -0.12772,-0.109847 -0.23955,0.002 -0.0998,0.09976 -0.10453,0.140332 -0.0274,0.233265 0.12034,0.145007 0.28576,0.144046 0.34179,-0.002 z m -14.81457,-0.111355 0.32048,-0.0807 -0.99592,-0.761421 c -0.54775,-0.41878 -1.29698,-0.972029 -1.66496,-1.229441 -0.36798,-0.257412 -0.73288,-0.549162 -0.81088,-0.648333 l -0.14184,-0.180312 -0.45623,0.205406 -0.45623,0.205405 0.50511,0.277299 c 0.56079,0.307863 2.82134,1.900022 3.03822,2.139894 0.15887,0.1757 0.22332,0.182726 0.66225,0.0722 z m 28.69457,-0.784355 c 0.74129,-0.39595 1.48659,-0.760348 1.65622,-0.809773 0.16964,-0.04943 0.3074,-0.109188 0.30614,-0.132805 -0.001,-0.02362 -0.086,-0.138213 -0.18839,-0.254656 l -0.1861,-0.211713 -0.4829,0.236512 c -0.26559,0.130081 -0.95642,0.506776 -1.53518,0.837099 -0.57875,0.330322 -1.14801,0.649752 -1.26502,0.709843 l -0.21274,0.109255 0.21274,0.115168 c 0.11701,0.06334 0.24305,0.116475 0.28009,0.118073 0.037,0.0016 0.67386,-0.321053 1.41514,-0.717003 z m -17.22009,0.392414 c 0.0232,-0.06038 4.3e-4,-0.159991 -0.0505,-0.221357 -0.0815,-0.09826 -0.10536,-0.09882 -0.19948,-0.0047 -0.12626,0.126267 -0.0674,0.335841 0.0944,0.335841 0.0624,0 0.13237,-0.0494 0.15554,-0.109781 z m -10.04912,-0.0829 c 0.073,-0.06606 0.13272,-0.15698 0.13272,-0.20205 0,-0.118391 -0.61591,-0.696751 -1.778,-1.669614 -0.5588,-0.467807 -1.08678,-0.93481 -1.17329,-1.037784 l -0.1573,-0.187226 -0.49585,0.165931 c -0.27272,0.09126 -0.57549,0.206857 -0.67282,0.256876 l -0.17698,0.09094 0.24955,0.128618 c 0.39599,0.204097 1.50034,0.957623 2.17269,1.482487 1.4219,1.109994 1.62932,1.216128 1.89928,0.971818 z m 23.26849,0.03302 c 0.13562,-0.135617 0.10601,-0.193344 -0.15509,-0.302441 -0.57619,-0.240748 -0.61374,-0.229552 -0.30552,0.09109 0.3159,0.328642 0.3347,0.337265 0.46061,0.21135 z m -33.06081,-0.2032 c 0.25143,-0.16818 0.27131,-0.20742 0.27214,-0.537345 4.9e-4,-0.195754 0.0845,-0.793978 0.18672,-1.329388 0.1022,-0.53541 0.17471,-1.00681 0.16113,-1.047557 -0.0136,-0.04075 -0.1784,0.09024 -0.36627,0.291086 -0.28786,0.307746 -0.33504,0.397818 -0.30005,0.572783 0.0349,0.174293 -0.16318,1.519582 -0.31125,2.114311 -0.0485,0.194846 -0.0222,0.19015 0.35758,-0.06389 z m 35.22216,-0.425525 c 0.43577,-0.234039 1.07955,-0.590226 1.43062,-0.791527 0.35107,-0.201301 0.85009,-0.456013 1.10895,-0.566027 l 0.47064,-0.200025 -0.20181,-0.212122 c -0.37513,-0.394301 -0.33578,-0.405082 -1.7533,0.480376 -0.723,0.451623 -1.59203,0.932412 -1.93116,1.06842 -0.33914,0.136008 -0.61619,0.263615 -0.61567,0.283572 5.1e-4,0.01996 0.15542,0.106864 0.34421,0.193126 0.18879,0.08626 0.34594,0.159741 0.34923,0.163286 0.003,0.0035 0.36251,-0.185041 0.79829,-0.419079 z m -24.4958,-0.201953 c 0.15961,-0.105626 0.27852,-0.203724 0.26425,-0.217993 -0.0143,-0.01427 -0.21904,-0.0603 -0.45504,-0.102284 -0.23601,-0.04199 -0.49097,-0.09454 -0.56658,-0.116794 -0.0996,-0.02931 -0.0604,0.05176 0.14236,0.294332 0.15392,0.184133 0.28997,0.334788 0.30233,0.334788 0.0124,0 0.15306,-0.08642 0.31268,-0.192049 z m -9.38697,-0.278615 c 0.008,-0.0027 0.0676,-0.347001 0.133,-0.765019 0.0654,-0.418017 0.19983,-1.147249 0.29869,-1.620514 0.0989,-0.473266 0.16099,-0.879248 0.13805,-0.902183 -0.0229,-0.02293 -0.14843,0.06175 -0.27888,0.188194 -0.21436,0.207759 -0.24595,0.294619 -0.32814,0.902181 -0.0863,0.638222 -0.43531,2.18659 -0.55821,2.476701 -0.0472,0.11138 -9.1e-4,0.0991 0.26206,-0.06955 0.17565,-0.112651 0.32569,-0.207064 0.33343,-0.209807 z m 31.88453,0.156189 c 0.0733,-0.09313 0.42695,-0.291089 0.78597,-0.439905 0.35903,-0.148815 0.92428,-0.435976 1.25611,-0.638135 0.33183,-0.20216 0.89011,-0.521856 1.24063,-0.710438 0.47641,-0.256312 0.61382,-0.361707 0.54429,-0.417464 -0.15093,-0.121022 -0.69625,-0.382442 -0.7977,-0.382412 -0.0515,1.6e-5 -0.61612,0.406242 -1.25475,0.902725 -0.63863,0.496483 -1.42915,1.059805 -1.75672,1.251829 -0.32757,0.192022 -0.59699,0.370904 -0.59872,0.397513 -0.002,0.03779 0.26737,0.165639 0.42185,0.19989 0.0142,0.0031 0.0858,-0.07047 0.15904,-0.163603 z m -1.08117,-0.52687 c 0.21356,-0.143426 0.3961,-0.268258 0.40564,-0.277404 0.01,-0.0091 -0.20272,0.05837 -0.47171,0.150043 -0.26899,0.09167 -0.55275,0.167516 -0.63058,0.168546 -0.16877,0.0022 -0.0725,0.116352 0.14151,0.16784 0.0798,0.0192 0.15003,0.0387 0.15599,0.04333 0.006,0.0046 0.18558,-0.10893 0.39915,-0.252355 z m -29.46601,-1.375746 c 0.3007,-1.171516 0.53891,-2.411915 0.47539,-2.475437 -0.0217,-0.02168 -0.11225,0.01159 -0.20127,0.07394 -0.13842,0.09695 -0.21222,0.358037 -0.50983,1.803545 -0.41221,2.002086 -0.40335,1.922278 -0.19824,1.786087 0.1201,-0.07974 0.21883,-0.350074 0.43395,-1.188138 z m 8.40944,1.16856 c 0,-0.01789 -0.1904,-0.08596 -0.42312,-0.151253 -0.31844,-0.08935 -0.53407,-0.217548 -0.87157,-0.518182 -1.02488,-0.912941 -1.13314,-1.740047 -0.42578,-3.253177 l 0.30533,-0.653143 0.003,-1.124857 c 0.003,-1.223783 0.0414,-1.374688 0.44417,-1.754653 0.26949,-0.254205 0.83354,-0.527373 1.32491,-0.641648 0.25709,-0.05979 0.48313,-0.173983 0.65315,-0.329967 l 0.26,-0.238538 7.2e-4,-0.930597 c 5.8e-4,-0.800706 0.0227,-0.978441 0.15835,-1.273376 0.23348,-0.507639 0.49088,-0.636329 1.27346,-0.636664 0.761,-2.9e-4 1.1441,0.12682 1.83288,0.608316 0.46668,0.326229 0.47503,0.32897 0.30267,0.09931 -0.0975,-0.1299 -0.26014,-0.399467 -0.36144,-0.599038 -0.20362,-0.401116 -0.53188,-0.691601 -1.05039,-0.929509 -0.28193,-0.129357 -0.47567,-0.15676 -1.10394,-0.156137 -0.91747,9.07e-4 -1.35423,0.159518 -1.81463,0.658994 -0.366,0.397066 -0.43077,0.564926 -0.50942,1.32026 -0.083,0.79746 -0.20394,0.98573 -0.90877,1.415213 -0.75587,0.460584 -1.00627,0.710385 -1.2994,1.296281 -0.32086,0.641336 -0.3672,1.032596 -0.22166,1.871432 0.0671,0.387001 0.0981,0.807638 0.0718,0.976288 -0.0254,0.162976 -0.25595,0.74046 -0.51234,1.283296 -0.5445,1.152845 -0.58993,1.474205 -0.28258,1.998662 0.34127,0.582333 1.46708,1.358667 2.292,1.580517 0.37961,0.102089 0.86271,0.148104 0.86271,0.08217 z m 20.70284,-0.389892 c 1.04327,-0.377336 1.73898,-0.914318 1.83285,-1.414669 0.0291,-0.154836 -0.009,-0.479337 -0.10029,-0.857044 -0.30401,-1.256787 -0.26955,-1.613062 0.27469,-2.839885 0.39478,-0.889897 0.4549,-1.271275 0.25986,-1.648429 -0.15779,-0.305143 -0.42506,-0.466138 -1.25119,-0.753698 -0.91492,-0.31846 -1.0861,-0.407269 -1.37201,-0.711799 -0.28589,-0.304515 -0.3653,-0.575005 -0.4226,-1.439478 -0.0599,-0.904347 -0.13351,-1.155672 -0.41917,-1.432156 -0.47543,-0.460135 -1.02386,-0.553224 -2.02866,-0.344333 -1.32778,0.276037 -1.74605,0.517733 -2.60552,1.50557 -0.70179,0.806614 -1.05631,1.341867 -0.95552,1.442656 0.0557,0.05571 0.19005,-0.03335 0.4691,-0.310977 0.66691,-0.663522 2.25598,-1.39749 3.22784,-1.490892 0.42987,-0.04131 0.45859,-0.03365 0.67129,0.179046 0.29873,0.298735 0.29311,0.603721 -0.0227,1.23304 -0.33034,0.658188 -0.37411,0.893009 -0.22504,1.207151 0.14338,0.302164 0.49571,0.490451 1.23198,0.658389 0.62511,0.142581 0.98857,0.373679 1.16186,0.738744 0.18483,0.389365 0.17301,0.995208 -0.027,1.385439 -0.22885,0.44643 -0.39216,1.143086 -0.33248,1.418337 0.0277,0.127907 0.18197,0.493815 0.34275,0.813129 0.33481,0.664945 0.37476,1.041034 0.15123,1.423767 -0.28658,0.490681 -0.6989,0.664287 -1.87689,0.790259 -0.90994,0.09731 -0.90714,0.09622 -0.90714,0.353935 0,0.117669 0.0408,0.232329 0.0907,0.254799 0.0499,0.02247 0.61323,0.02957 1.25186,0.01577 0.95183,-0.02056 1.23669,-0.05241 1.58026,-0.176673 z m -20.20975,-0.03075 c 0.13852,-0.114961 -0.0168,-0.234939 -0.43451,-0.335607 -0.49238,-0.118667 -0.63915,-0.106226 -0.63915,0.05418 0,0.351961 0.75137,0.548909 1.07366,0.281428 z m -8.16561,-0.16158 c 0.24392,-0.101915 0.2578,-0.127397 0.30629,-0.562429 0.0279,-0.250621 0.18995,-1.010848 0.36003,-1.689391 0.17008,-0.678542 0.33071,-1.323258 0.35695,-1.4327 l 0.0477,-0.198987 -0.24951,0.118987 c -0.24817,0.118343 -0.25037,0.123738 -0.40641,0.997272 -0.14687,0.822221 -0.36583,1.726329 -0.61255,2.529286 -0.0582,0.189592 -0.0951,0.344714 -0.082,0.344714 0.0132,0 0.13893,-0.04804 0.27945,-0.106752 z m 11.7508,-0.40206 c 0.0569,-0.529996 0.007,-1.066181 -0.10623,-1.13602 -0.14136,-0.08737 -0.25235,0.195554 -0.30257,0.771267 -0.0543,0.622189 0.0221,0.899903 0.23613,0.858988 0.0928,-0.01775 0.13422,-0.136155 0.17267,-0.494235 z m 0.51327,0.345531 c 0.0465,-0.133193 -0.0209,-0.272143 -0.13189,-0.272143 -0.12749,0 -0.20092,0.125733 -0.15037,0.257476 0.0496,0.129141 0.2389,0.13898 0.28226,0.01467 z m 18.74017,-0.681707 c 0.31931,-0.238245 0.70787,-0.510467 0.86346,-0.604939 0.26335,-0.159901 0.27217,-0.175733 0.12768,-0.229185 -0.25733,-0.09519 -0.86239,-0.155898 -1.05985,-0.106338 -0.1523,0.03822 -0.18529,0.08957 -0.18529,0.288294 0,0.32631 -0.1267,0.682719 -0.35163,0.989161 -0.10254,0.1397 -0.13885,0.21849 -0.0807,0.175089 0.0582,-0.0434 0.367,-0.273837 0.68632,-0.512082 z m -11.43649,-2.123009 c 0.70618,-0.698485 1.53587,-1.442668 1.85706,-1.665668 0.31931,-0.221701 0.72753,-0.530755 0.90714,-0.686785 0.64206,-0.557755 1.45143,-0.895392 1.45143,-0.605478 0,0.191489 -0.27593,0.890407 -0.54216,1.373259 -0.30194,0.547613 -0.30161,0.725408 0.001,0.644426 0.13833,-0.03699 0.2236,-0.133497 0.30006,-0.339574 0.48669,-1.311727 0.66795,-2.030729 0.54336,-2.155316 -0.20999,-0.209991 -1.51676,0.391008 -2.59042,1.191366 -0.89796,0.669381 -2.80191,2.507324 -3.40672,3.288629 -0.76863,0.992919 -0.93265,1.263306 -0.83654,1.379106 0.0691,0.08326 0.17231,-0.01405 0.56188,-0.5297 0.26248,-0.347431 1.05165,-1.19985 1.75372,-1.894265 z m 3.74045,2.465615 c 0.0878,-0.142002 0.18613,-0.849783 0.14451,-1.039756 -0.046,-0.209949 -0.20764,-0.269244 -0.27259,-0.09999 -0.021,0.05477 -0.0621,0.258756 -0.0913,0.453305 -0.0471,0.314079 -0.0612,0.335453 -0.12578,0.190706 -0.0851,-0.190829 -0.14468,-0.203087 -0.26751,-0.05508 -0.12753,0.153665 -0.033,0.352864 0.14526,0.306237 0.11445,-0.02993 0.14426,-0.0016 0.14426,0.13691 0,0.124483 0.0404,0.174634 0.14086,0.174634 0.0775,0 0.15948,-0.03013 0.18224,-0.06696 z m -21.59943,-0.40396 c 0.0969,-0.0969 0.92724,-3.573781 0.8677,-3.63332 -0.0155,-0.01545 -0.19667,0.02583 -0.40273,0.09172 -0.37206,0.11898 -0.37521,0.122531 -0.45662,0.514694 -0.0451,0.217187 -0.23779,0.970582 -0.42823,1.674211 -0.19044,0.703629 -0.36969,1.386275 -0.39833,1.516992 l -0.0521,0.237669 0.41983,-0.18567 c 0.23091,-0.102119 0.43361,-0.199453 0.45046,-0.216299 z m 6.24042,0.161437 c 0.0289,-0.149975 -0.18061,-0.251032 -0.29118,-0.140462 -0.11057,0.110571 -0.01,0.32007 0.14046,0.291188 0.0695,-0.01339 0.13734,-0.08121 0.15072,-0.150726 z m 19.49432,-0.341865 c 0.17741,-0.06745 0.24969,-0.244248 0.13009,-0.318168 -0.0308,-0.01906 -0.23495,-0.01282 -0.45358,0.01386 -0.33929,0.04141 -0.40089,0.07242 -0.42069,0.211797 -0.0207,0.14601 0.008,0.163286 0.26742,0.163286 0.15983,0 0.37438,-0.03185 0.47676,-0.07077 z M 150.20015,91.86297 c 0.23092,-0.06629 0.40253,-0.148554 0.38135,-0.182819 -0.0556,-0.09003 0.13524,-1.114388 0.43221,-2.319386 0.1416,-0.574565 0.24816,-1.053952 0.23681,-1.065304 -0.0113,-0.01135 -0.17112,0.01145 -0.35503,0.05068 l -0.33438,0.07132 -0.16182,0.812557 c -0.089,0.446907 -0.27687,1.204443 -0.41748,1.683415 -0.14061,0.478971 -0.27311,0.933114 -0.29444,1.009205 -0.0213,0.07609 -0.009,0.120913 0.0271,0.0996 0.0362,-0.02131 0.25479,-0.09298 0.48571,-0.159265 z m 24.1212,-0.301278 c 0.066,-0.172098 -0.0887,-0.293475 -0.22744,-0.17836 -0.0859,0.07134 -0.0932,0.117273 -0.0305,0.192868 0.10867,0.130944 0.20417,0.125573 0.25792,-0.01451 z m -9.2864,-0.82202 c 0.076,-0.12177 -0.0302,-0.261964 -0.93033,-1.227594 -1.84531,-1.979596 -3.64884,-3.42465 -4.2742,-3.42465 -0.10842,0 -0.28317,0.06768 -0.38834,0.15041 -0.39308,0.309202 -0.23023,1.010564 0.6347,2.733467 0.4618,0.919902 0.9416,1.614736 1.11537,1.615272 0.10691,3.63e-4 0.12037,-0.158752 0.0218,-0.257349 -0.11725,-0.117251 -0.91346,-1.918121 -1.19863,-2.711058 -0.22542,-0.626779 -0.25719,-0.781911 -0.19024,-0.928844 l 0.0804,-0.176395 0.81572,0.561227 c 0.44865,0.308674 0.90053,0.629314 1.00418,0.712533 1.52029,1.220624 1.97808,1.623777 2.24759,1.979351 0.46713,0.616325 0.88235,1.1111 0.93243,1.1111 0.0241,0 0.0824,-0.06186 0.1296,-0.13747 z m -13.0671,-2.184816 0.025,-0.399142 -0.10129,0.435428 c -0.0557,0.239486 -0.121,0.5334 -0.14507,0.653143 -0.0425,0.211361 -0.0403,0.210302 0.0763,-0.03629 0.0661,-0.1397 0.13134,-0.433614 0.14507,-0.653143 z m 21.97873,0.364642 c 0,-0.295884 -0.22968,-0.485202 -0.67128,-0.553327 l -0.30843,-0.04758 v 0.299561 c 0,0.261374 0.0208,0.299949 0.16328,0.302604 0.0898,0.0017 0.27759,0.06554 0.41729,0.14192 0.32597,0.178232 0.39914,0.151985 0.39914,-0.143178 z m -9.19147,-0.582532 c 0.68682,-0.61492 1.56056,-1.119092 1.94485,-1.122227 0.19564,-0.0016 0.35369,0.0454 0.45206,0.134424 0.13995,0.126654 0.15479,0.127661 0.1986,0.01347 0.061,-0.158862 -0.0136,-0.791948 -0.11578,-0.982847 -0.1105,-0.206473 -0.45859,-0.185444 -0.92322,0.05578 -0.52977,0.275033 -2.37526,2.102572 -2.26156,2.239567 0.12749,0.153618 0.1884,0.124403 0.70505,-0.338167 z m -8.51157,0.06565 c 0.0878,-0.142056 0.70908,-0.500904 0.86724,-0.500904 0.10349,0 0.19233,-0.08085 0.27168,-0.247238 0.11659,-0.244503 0.11591,-0.247735 -0.0619,-0.29235 -0.22976,-0.05767 -0.7297,0.07634 -0.99829,0.267593 -0.23318,0.166039 -0.43114,0.567222 -0.36497,0.739652 0.0501,0.130545 0.21427,0.149618 0.28619,0.03325 z m 8.47671,-1.342159 c 0.0367,-0.089 -1.06863,-0.941341 -1.47115,-1.134414 -0.40439,-0.19397 -0.86662,-0.141598 -1.03984,0.117818 -0.0703,0.105249 -0.0713,0.643889 -0.001,0.609713 0.0299,-0.01459 0.14636,-0.0725 0.25871,-0.128699 0.16864,-0.08435 0.26281,-0.08652 0.5398,-0.01244 0.30245,0.08089 1.17832,0.631362 1.28866,0.809905 0.0469,0.07586 0.36699,-0.121418 0.42493,-0.261883 z m 9.17695,0.17725 c -0.057,-0.383267 -0.83789,-0.623728 -1.28116,-0.3945 -0.12636,0.06534 -0.22974,0.146623 -0.22974,0.180625 0,0.18792 0.50745,0.329329 1.29319,0.360364 0.20759,0.0082 0.23769,-0.01206 0.21771,-0.146489 z m -4.48633,-0.434983 c 0,-0.143003 -0.4369,-0.92058 -0.75504,-1.343802 -0.84333,-1.121879 -2.1046,-1.914208 -2.42759,-1.525019 -0.0622,0.07491 -0.0215,0.124003 0.1838,0.221912 0.42044,0.20049 1.51028,1.10777 1.82438,1.518767 0.15828,0.207107 0.40623,0.613686 0.55101,0.903509 l 0.26322,0.526952 0.18011,-0.118012 c 0.0991,-0.06491 0.18011,-0.147845 0.18011,-0.184307 z m -11.14999,0.119182 c 0.27492,-0.274925 -0.27443,-0.995581 -0.83056,-1.089538 -0.34458,-0.05822 -0.7431,0.139134 -0.77893,0.385733 -0.0215,0.147699 0.006,0.15961 0.37121,0.15961 0.43444,0 0.73441,0.169229 0.85303,0.481245 0.0747,0.196575 0.22678,0.221418 0.38525,0.06295 z m 7.1569,-0.545321 c 0.44093,-0.387076 0.35203,-0.464432 -0.56428,-0.491006 l -0.70406,-0.02042 0.35813,0.310704 c 0.19697,0.170887 0.39291,0.350283 0.43542,0.398657 0.10771,0.122552 0.11151,0.120969 0.47479,-0.197937 z m -4.30232,-0.963208 c 0.28193,-0.418523 1.02643,-1.215298 1.36484,-1.460658 0.11158,-0.0809 0.12539,-0.125273 0.0597,-0.191894 -0.23261,-0.236029 -0.90345,0.298321 -1.5872,1.264262 -0.42505,0.600468 -0.45778,0.671776 -0.34613,0.75391 0.0678,0.04989 0.14158,0.08968 0.16388,0.08842 0.0223,-0.0013 0.1775,-0.20558 0.34486,-0.454036 z m 3.54568,-0.956477 c 0.20147,-0.482179 0.0897,-1.221836 -0.23351,-1.545026 -0.16338,-0.163376 -0.19277,-0.170395 -0.29316,-0.07001 -0.0952,0.09517 -0.0987,0.16506 -0.0243,0.475309 0.048,0.200052 0.0786,0.505195 0.0679,0.678095 -0.0191,0.309878 0.15626,0.713297 0.30998,0.713297 0.0374,0 0.11525,-0.113252 0.17308,-0.251669 z m 7.51046,-0.223688 c 0.0771,-0.09293 0.0724,-0.133503 -0.0274,-0.233265 -0.11183,-0.111832 -0.12955,-0.111979 -0.23954,-0.002 -0.1319,0.131901 -0.0876,0.34775 0.0713,0.34775 0.0562,0 0.14426,-0.05063 0.19561,-0.1125 z m -6.38994,-0.685786 c 2.9e-4,-0.114193 -0.3035,-0.508007 -0.36334,-0.471024 -0.0826,0.05105 -0.0978,0.783339 -0.0179,0.863218 0.0469,0.04692 0.38104,-0.296765 0.38127,-0.392194 z m 6.20389,0.238882 c 0.2637,-0.129334 0.40075,-0.241012 0.40075,-0.326572 0,-0.179374 -0.35814,-0.172406 -0.72369,0.01408 -0.3207,0.16361 -0.39521,0.252774 -0.33731,0.403656 0.0582,0.151755 0.20675,0.131249 0.66025,-0.09117 z m -10.58184,-0.09847 c 0.0547,-0.05469 -0.01,-0.293528 -0.22064,-0.816428 -0.2794,-0.693145 -0.29798,-0.784276 -0.29864,-1.464842 -7.7e-4,-0.797087 0.1109,-1.109251 0.4525,-1.264895 0.15473,-0.0705 0.21263,-0.0469 0.49528,0.201894 0.36414,0.320533 0.84336,0.482865 1.26034,0.426936 0.35877,-0.04812 0.99666,-0.337527 1.57969,-0.716689 0.24763,-0.161039 0.48512,-0.271239 0.52775,-0.244888 0.0426,0.02635 0.2107,0.228184 0.37347,0.448516 0.30029,0.406495 0.61841,0.60484 0.97007,0.60484 0.10192,0 0.47783,-0.1143 0.83534,-0.254 0.83581,-0.326602 1.26783,-0.341545 1.54389,-0.0534 0.1057,0.11033 0.24244,0.343035 0.30386,0.517124 0.13899,0.393928 0.13935,1.183487 7.2e-4,1.568276 -0.1228,0.340873 -0.13752,0.571863 -0.0323,0.506831 0.041,-0.02531 0.23284,-0.236322 0.4264,-0.468912 0.34638,-0.416212 0.35337,-0.434621 0.44291,-1.165556 0.12315,-1.005317 0.067,-2.049092 -0.12421,-2.307207 -0.41399,-0.558977 -1.02578,-0.661264 -2.03236,-0.339797 -0.31086,0.09928 -0.68127,0.180919 -0.82313,0.181428 -0.2653,9.53e-4 -0.8039,-0.288052 -1.01207,-0.543063 -0.20716,-0.253778 -0.67575,-0.544581 -0.87752,-0.544581 -0.14009,0 -0.33266,0.114082 -0.62411,0.369739 -0.51853,0.45484 -0.71349,0.558807 -1.22534,0.653428 -0.51683,0.09554 -1.06141,-0.01309 -1.71622,-0.342339 -1.03151,-0.518667 -1.74145,-0.164626 -2.04876,1.021705 -0.31293,1.208001 8.1e-4,2.229604 1.05675,3.441012 0.31746,0.364193 0.60235,0.662169 0.63311,0.662169 0.0308,0 0.0907,-0.03479 0.13322,-0.0773 z M 158.4556,83.5075 c 0.0771,-0.09293 0.0724,-0.133503 -0.0274,-0.233265 -0.11264,-0.112641 -0.12889,-0.112641 -0.24153,0 -0.0998,0.09976 -0.10453,0.140332 -0.0274,0.233265 0.0514,0.06188 0.11803,0.112499 0.14817,0.112499 0.0301,0 0.0968,-0.05062 0.14816,-0.112499 z m 0.65012,-0.313142 c 0,-0.157516 -0.32496,-0.449779 -0.58759,-0.528465 -0.24933,-0.0747 -0.30635,-0.06991 -0.4108,0.03454 -0.10646,0.10646 -0.10829,0.134151 -0.015,0.226595 0.20768,0.205815 1.01341,0.418363 1.01341,0.267331 z m 2.73343,-1.775656 c 0.007,-0.30603 -0.0139,-0.556417 -0.0455,-0.556417 -0.20793,0 -0.37092,0.734856 -0.22391,1.009534 0.15839,0.295966 0.25687,0.130361 0.26945,-0.453117 z m 6.99294,0.418573 c 0.0902,-0.237349 0.0894,-0.408416 -0.003,-0.651582 -0.0612,-0.160977 -0.0921,-0.178816 -0.18143,-0.104696 -0.10989,0.09121 -0.15666,0.796656 -0.0593,0.894049 0.0927,0.09273 0.17341,0.04712 0.2437,-0.137771 z m -0.43722,-0.144702 c 0,-0.200646 -0.17696,-0.242896 -0.24749,-0.05909 -0.051,0.132999 0.0844,0.337054 0.18314,0.276005 0.0354,-0.02187 0.0643,-0.119485 0.0643,-0.216915 z m -6.13982,0.07031 c 0.0551,-0.14354 -0.005,-0.247451 -0.14189,-0.247451 -0.0575,0 -0.10458,0.05987 -0.10458,0.133047 0,0.235048 0.16991,0.313915 0.24647,0.114404 z m 2.55793,-0.937804 c 0.0232,-0.06038 4.3e-4,-0.15999 -0.0505,-0.221356 -0.0815,-0.09826 -0.10536,-0.09882 -0.19947,-0.0047 -0.12627,0.126266 -0.0674,0.33584 0.0944,0.33584 0.0624,0 0.13237,-0.0494 0.15554,-0.109781 z m 2.0216,-5.180547 c -0.46557,-0.117089 -0.81893,-0.442562 -0.98796,-0.910006 l -0.0902,-0.249528 -0.28617,0.325108 c -0.15739,0.178809 -0.42099,0.394219 -0.58576,0.478689 -0.37027,0.189812 -1.21574,0.259395 -1.60217,0.13186 -0.38219,-0.126135 -0.76432,-0.487482 -0.94253,-0.891282 l -0.1526,-0.345772 -0.27682,0.382058 c -0.15224,0.210132 -0.41286,0.48003 -0.57914,0.599773 -0.2664,0.191838 -0.37327,0.220746 -0.89919,0.243228 -0.79457,0.03396 -1.17975,-0.13545 -1.37361,-0.604157 l -0.13118,-0.317157 -0.34855,0.326032 c -0.538,0.503234 -0.90694,0.643008 -1.68637,0.638883 -0.52056,-0.0028 -0.73037,-0.03766 -1.03354,-0.171961 -0.38878,-0.172222 -0.88961,-0.645564 -0.88961,-0.840792 0,-0.176165 -0.0971,-0.124989 -0.28427,0.149897 -0.34869,0.511971 -1.38944,0.912557 -1.96689,0.757065 -0.37933,-0.102144 -0.81581,-0.496204 -1.02247,-0.92311 -0.13727,-0.283553 -0.15997,-0.44372 -0.15112,-1.065815 0.0106,-0.743229 0.0816,-1.067736 1.00175,-4.578399 0.25074,-0.956627 0.24823,-0.962013 -0.27012,-0.580422 -0.70101,0.516053 -1.08059,0.421593 -1.08059,-0.268907 0,-0.323015 0.0295,-0.395033 0.24461,-0.597942 0.13453,-0.126882 0.55721,-0.419829 0.93929,-0.650995 0.77429,-0.468462 0.7078,-0.351702 0.88469,-1.553578 0.0606,-0.411943 0.14138,-0.887964 0.17945,-1.057825 0.0381,-0.169861 0.0498,-0.428231 0.0262,-0.574156 -0.0339,-0.208829 -0.0167,-0.275415 0.0805,-0.312744 0.20337,-0.07804 0.65415,0.0994 1.22861,0.48362 0.62952,0.421049 0.84361,0.762217 0.84337,1.344004 l -1.5e-4,0.358088 0.79028,-0.02252 c 1.05822,-0.03016 1.27036,0.05379 1.37556,0.544351 0.0939,0.437666 0.005,0.881646 -0.21057,1.056599 -0.10525,0.08527 -0.28319,0.127 -0.54149,0.127 -0.51796,0 -1.39256,0.17346 -1.83563,0.364064 l -0.36197,0.155712 -0.15981,0.665398 c -0.0879,0.365969 -0.30279,1.053927 -0.47754,1.528796 -0.17476,0.47487 -0.34906,1.04637 -0.38735,1.27 -0.12315,0.719279 -0.31713,2.695413 -0.26929,2.743258 0.0899,0.08991 0.42133,-0.156919 0.67537,-0.502979 0.16803,-0.228903 0.40151,-0.758084 0.67391,-1.527393 0.47763,-1.348941 0.65836,-1.730383 1.10789,-2.338284 0.60136,-0.813236 1.2114,-1.376859 1.68922,-1.560698 0.6011,-0.231272 1.40661,-0.240905 1.81924,-0.02176 0.61204,0.325056 1.18049,1.199727 1.25003,1.923394 0.04,0.415769 -0.0574,0.56416 -0.37487,0.57133 l -0.22697,0.0051 0.29029,0.130399 c 0.47277,0.212373 0.58231,0.385788 0.56952,0.901608 -0.006,0.245 -0.0822,0.860469 -0.16919,1.367709 -0.087,0.507239 -0.14732,0.975736 -0.1341,1.041105 0.0194,0.0959 0.0973,0.06495 0.40343,-0.160253 0.60337,-0.443895 0.96381,-1.257278 1.54195,-3.47964 0.16508,-0.634564 0.36701,-1.359945 0.44873,-1.611958 0.0817,-0.252014 0.13119,-0.475598 0.10993,-0.496853 -0.0213,-0.02125 -0.18562,0.06247 -0.36525,0.186065 -0.17963,0.123592 -0.37954,0.224711 -0.44423,0.224711 -0.12824,0 -0.32794,-0.404864 -0.32794,-0.664847 0,-0.2253 0.65898,-0.840903 1.21557,-1.135551 0.24947,-0.132062 0.45357,-0.249654 0.45357,-0.261316 0,-0.127606 0.51265,-2.967099 0.5452,-3.019759 0.0675,-0.109149 0.19946,-0.08683 0.64081,0.108357 0.75384,0.333386 1.23484,0.911887 1.32893,1.598313 l 0.0448,0.326803 h 0.45603 0.45603 l 0.11648,-0.526143 c 0.0641,-0.289378 0.18848,-0.762907 0.27648,-1.052285 0.14957,-0.491859 0.17341,-0.526143 0.36582,-0.526143 0.28036,0 0.44208,0.09689 1.01054,0.605421 0.5881,0.526101 0.74259,0.812442 0.68766,1.274598 l -0.0396,0.333409 0.89763,-0.02223 c 1.1008,-0.02726 1.15561,0.0062 1.23564,0.753472 0.0439,0.410034 0.0331,0.504333 -0.0659,0.576754 -0.0651,0.04762 -0.46956,0.104911 -0.89874,0.12732 -0.49341,0.02576 -0.99351,0.102929 -1.36006,0.209858 l -0.57972,0.169113 -0.34283,1.524 c -0.18856,0.8382 -0.47947,1.948543 -0.64647,2.467429 -0.28935,0.899085 -0.4362,1.824528 -0.33242,2.094966 0.067,0.174582 0.32346,0.05582 0.70639,-0.327106 0.62429,-0.624294 0.77921,-0.911245 0.86509,-1.602339 0.21002,-1.6901 1.03821,-3.002544 2.28065,-3.614196 0.42424,-0.208856 0.52525,-0.229982 0.97742,-0.204432 0.47387,0.02678 0.53206,0.04987 0.9648,0.383015 1.01309,0.779905 1.22892,1.06055 1.4327,1.86299 l 0.13473,0.530548 0.19899,-0.396295 c 0.55342,-1.10216 1.25546,-1.894077 1.98028,-2.233799 0.3482,-0.163204 0.51421,-0.194472 1.03182,-0.194351 0.56483,1.31e-4 0.65562,0.02115 1.07646,0.249181 0.75463,0.408904 1.39686,1.27727 1.6427,2.221119 0.15073,0.578689 0.15355,2.476647 0.004,2.978812 -0.13484,0.454069 -0.57134,1.178552 -0.93623,1.553925 -0.33269,0.342249 -1.11583,0.751244 -1.68038,0.877587 -0.51508,0.115269 -1.12365,0.0117 -1.75363,-0.298435 -0.7234,-0.356128 -1.26272,-1.155843 -1.5832,-2.347585 l -0.15312,-0.570947 -0.16461,0.607252 c -0.35876,1.323493 -0.85748,2.028254 -1.61282,2.279138 -1.14605,0.380657 -2.84415,-0.244105 -3.29225,-1.211282 l -0.16122,-0.347967 -0.37087,0.569407 c -0.71842,1.103 -1.57425,1.648644 -2.29969,1.466199 z m -9.11991,-2.287083 c 0.26218,-0.13558 0.69187,-0.611041 0.87173,-0.964609 0.22333,-0.438981 0.44668,-1.24123 0.44755,-1.607486 0.001,-0.590088 0.0756,-0.881355 0.2246,-0.881355 0.1115,0 0.1266,-0.03936 0.0905,-0.235857 -0.0651,-0.354264 -0.26713,-0.668405 -0.44666,-0.694487 -0.20946,-0.03043 -0.90833,0.631897 -1.23225,1.167808 -0.47127,0.779729 -0.88669,2.386229 -0.77332,2.990578 0.0915,0.487493 0.23469,0.526971 0.81785,0.225408 z m 6.60711,0.143534 c 0.27593,-0.142686 0.65612,-0.577325 1.1367,-1.299463 0.37571,-0.564568 0.43764,-0.722733 0.8719,-2.226944 0.25711,-0.890568 0.45899,-1.627697 0.44862,-1.638067 -0.0104,-0.01037 -0.24704,0.125435 -0.52592,0.301789 -0.27889,0.176353 -0.54821,0.32101 -0.59849,0.321457 -0.0503,4.36e-4 -0.14678,-0.06383 -0.21444,-0.142851 -0.11859,-0.138503 -0.13303,-0.11568 -0.40179,0.635 -0.54601,1.525051 -0.71525,2.090018 -0.89165,2.976549 -0.25066,1.259778 -0.24571,1.290123 0.17507,1.07253 z m 8.32865,-0.200603 c 0.47784,-0.453373 0.89701,-1.592257 0.89701,-2.437162 0,-0.331534 -0.0166,-0.38262 -0.10159,-0.312111 -0.0559,0.04637 -0.17396,0.26264 -0.26243,0.4806 -0.17974,0.442869 -0.35334,0.514701 -0.54328,0.224807 -0.1589,-0.242513 -0.34519,-1.188822 -0.30196,-1.533944 l 0.0364,-0.290285 -0.23191,0.265483 c -0.12755,0.146016 -0.35946,0.520103 -0.51534,0.831303 -0.25656,0.512181 -0.28306,0.617727 -0.27952,1.113374 0.006,0.888268 0.13804,1.369564 0.46392,1.695448 0.3218,0.321804 0.46687,0.315316 0.83874,-0.03751 z m 5.75838,0.160087 c 0.56019,-0.285791 1.05689,-1.333189 1.13936,-2.402592 0.0553,-0.717061 -0.0388,-0.779451 -0.37736,-0.250202 -0.14165,0.221436 -0.30733,0.402612 -0.36819,0.402612 -0.14831,0 -0.48121,-0.740344 -0.52151,-1.159815 -0.0197,-0.204908 0.0114,-0.435731 0.0812,-0.60285 0.10828,-0.259157 0.10735,-0.267707 -0.0215,-0.198736 -0.16144,0.0864 -0.7608,0.870479 -0.95222,1.24569 -0.21864,0.428578 -0.31388,1.185295 -0.22907,1.820035 0.09,0.673822 0.19876,0.91028 0.51705,1.124538 0.30124,0.202784 0.37244,0.204858 0.73221,0.02132 z m -12.4088,-6.358233 c 0,-0.01569 -0.049,-0.02852 -0.10886,-0.02852 -0.0599,0 -0.10885,0.03163 -0.10885,0.07029 0,0.03866 0.049,0.0515 0.10885,0.02852 0.0599,-0.02298 0.10886,-0.05461 0.10886,-0.07029 z"
       id="path302"
       inkscape:export-filename=".\logo.svg"
       inkscape:export-xdpi="96"
       inkscape:export-ydpi="96" /></g></svg>
